# xmcd
#
# Track frame offsets:
#	182
#	19645
#	39545
#	58695
#	77532
#	95807
#	117032
#	141042
#	160307
#	180770
#	199707
#	211182
#	229607
#	239245
#	248482
#	258032
#	270645
#
# Disc length: 3886 seconds
#
# Revision: 0
# Processed by: cddbd v1.4PL0 Copyright (c) Steve Scherf et al.
# Submitted via: dBpowerAMP V4.0
#
DISCID=d80f2c11
DTITLE=Eddy Mitchell - Lèches Botes Blues
DYEAR=1900
DGENRE=Blues
TTITLE0=Lèches Botes Blues
TTITLE1=Mon coeur vinyle
TTITLE2=Under the rainbow
TTITLE3=Me laisse pas tomber
TTITLE4=Du déjà vu
TTITLE5=On m'a dit que
TTITLE6=la baby blues
TTITLE7=Tache d'huile
TTITLE8=Les lionnes de Mer
TTITLE9=Comment-fais-tu pour dormir ?
TTITLE10=Sois pas cruelle
TTITLE11=Vraiment bien
TTITLE12=Rock O'Rico
TTITLE13=Ergomane
TTITLE14=Sacré Soleil
TTITLE15=Plus rien sans elle
TTITLE16=Tell it like it is
EXTD=
EXTT0=
EXTT1=
EXTT2=
EXTT3=
EXTT4=
EXTT5=
EXTT6=
EXTT7=
EXTT8=
EXTT9=
EXTT10=
EXTT11=
EXTT12=
EXTT13=
EXTT14=
EXTT15=
EXTT16=
PLAYORDER=
